<svg width="53" height="64" viewBox="0 0 53 64" fill="none" xmlns="http://www.w3.org/2000/svg">
<g filter="url(#filter0_d_0_21)">
<path d="M8.83553 56V51.8H24.0329V39.2H17.8158C13.9934 39.2 10.7352 37.835 8.04112 35.105C5.34704 32.375 4 29.0733 4 25.2C4 22.4 4.75987 19.8217 6.2796 17.465C7.79934 15.1083 9.84868 13.3933 12.4276 12.32C12.8421 8.82 14.3503 5.89167 16.9523 3.535C19.5543 1.17833 22.6053 0 26.1053 0C29.6053 0 32.6562 1.17833 35.2582 3.535C37.8602 5.89167 39.3684 8.82 39.7829 12.32C42.3618 13.3933 44.4112 15.1083 45.9309 17.465C47.4507 19.8217 48.2105 22.4 48.2105 25.2C48.2105 29.0733 46.8635 32.375 44.1694 35.105C41.4753 37.835 38.2171 39.2 34.3947 39.2H28.1776V51.8H44.0658V56H8.83553ZM17.8158 35H34.3947C37.0658 35 39.3454 34.0433 41.2336 32.13C43.1217 30.2167 44.0658 27.9067 44.0658 25.2C44.0658 23.24 43.5132 21.455 42.4079 19.845C41.3026 18.235 39.875 17.0333 38.125 16.24L35.9145 15.26L35.6382 12.81C35.3158 10.3367 34.2566 8.28333 32.4605 6.65C30.6645 5.01667 28.5461 4.2 26.1053 4.2C23.6645 4.2 21.5461 5.01667 19.75 6.65C17.9539 8.28333 16.8947 10.3367 16.5724 12.81L16.2961 15.26L14.0855 16.24C12.3355 17.0333 10.9079 18.235 9.80263 19.845C8.69737 21.455 8.14474 23.24 8.14474 25.2C8.14474 27.9067 9.08882 30.2167 10.977 32.13C12.8651 34.0433 15.1447 35 17.8158 35Z" fill="white"/>
</g>
<defs>
<filter id="filter0_d_0_21" x="0" y="0" width="52.2105" height="64" filterUnits="userSpaceOnUse" color-interpolation-filters="sRGB">
<feFlood flood-opacity="0" result="BackgroundImageFix"/>
<feColorMatrix in="SourceAlpha" type="matrix" values="0 0 0 0 0 0 0 0 0 0 0 0 0 0 0 0 0 0 127 0" result="hardAlpha"/>
<feOffset dy="4"/>
<feGaussianBlur stdDeviation="2"/>
<feComposite in2="hardAlpha" operator="out"/>
<feColorMatrix type="matrix" values="0 0 0 0 0 0 0 0 0 0 0 0 0 0 0 0 0 0 0.25 0"/>
<feBlend mode="normal" in2="BackgroundImageFix" result="effect1_dropShadow_0_21"/>
<feBlend mode="normal" in="SourceGraphic" in2="effect1_dropShadow_0_21" result="shape"/>
</filter>
</defs>
</svg>
